<svg width="301" height="300" viewBox="0 0 301 300" fill="none" xmlns="http://www.w3.org/2000/svg">
<path d="M172.125 262.5C169.927 266.288 166.773 269.433 162.978 271.619C159.183 273.805 154.88 274.956 150.5 274.956C146.12 274.956 141.817 273.805 138.022 271.619C134.227 269.433 131.073 266.288 128.875 262.5" stroke="#B6B4B4" stroke-width="6" stroke-linecap="round" stroke-linejoin="round"/>
<path d="M233.375 162.5C227.814 142.143 225.163 121.101 225.5 100" stroke="#B6B4B4" stroke-width="6" stroke-linecap="round" stroke-linejoin="round"/>
<path d="M78.75 78.25C76.5783 85.2951 75.4826 92.6278 75.5 100C75.5 187.5 38 212.5 38 212.5H213" stroke="#B6B4B4" stroke-width="6" stroke-linecap="round" stroke-linejoin="round"/>
<path d="M225.5 100C225.52 86.4133 221.849 73.0763 214.879 61.4136C207.909 49.7509 197.902 40.2007 185.927 33.783C173.951 27.3652 160.457 24.3211 146.886 24.9758C133.315 25.6305 120.177 29.9593 108.875 37.5" stroke="#B6B4B4" stroke-width="6" stroke-linecap="round" stroke-linejoin="round"/>
<path d="M13 12.5L288 287.5" stroke="#B6B4B4" stroke-width="6" stroke-linecap="round" stroke-linejoin="round"/>
</svg>
